<svg width="31" height="38" viewBox="0 0 31 38" fill="none" xmlns="http://www.w3.org/2000/svg">
<path d="M15.2313 0.150391C11.3125 0.155014 7.55548 1.7138 4.78446 4.48483C2.01344 7.25585 0.454651 11.0128 0.450028 14.9316C0.445334 18.1341 1.49141 21.2497 3.42778 23.8004C3.42778 23.8004 3.8309 24.3312 3.89675 24.4078L15.2313 37.7754L26.5712 24.401C26.6303 24.3298 27.0348 23.8004 27.0348 23.8004L27.0361 23.7964C28.9715 21.2467 30.0171 18.1326 30.0125 14.9316C30.0079 11.0128 28.4491 7.25585 25.6781 4.48483C22.9071 1.7138 19.1501 0.155014 15.2313 0.150391ZM15.2313 20.3066C14.1682 20.3066 13.129 19.9914 12.2451 19.4008C11.3612 18.8102 10.6722 17.9707 10.2654 16.9886C9.8586 16.0064 9.75216 14.9257 9.95956 13.883C10.167 12.8404 10.6789 11.8826 11.4306 11.1309C12.1823 10.3792 13.14 9.86732 14.1827 9.65992C15.2253 9.45252 16.306 9.55897 17.2882 9.96579C18.2704 10.3726 19.1098 11.0615 19.7004 11.9455C20.291 12.8294 20.6063 13.8686 20.6063 14.9316C20.6045 16.3566 20.0376 17.7228 19.03 18.7304C18.0224 19.738 16.6563 20.3049 15.2313 20.3066Z" fill="#018ABE"/>
</svg>
